# xmcd
# 
# Track frame offsets:
#     150
#     20767
#     41350
#     63317
#     85907
#     97957
#     117040
#     127455
#     145790
#     163000
#     182090
# 
# Disc length: 2661
# 
# Revision: 34
# Processed by: cddbd v1.5.2PL0 Copyright (c) Steve Scherf et al.
# Submitted via: fre:ac v1.0.17
# 
DISCID=930a630b
DTITLE=Sade - Lovers Rock
DYEAR=2000
DGENRE=Rock
TTITLE0=By Your Side
TTITLE1=Flow
TTITLE2=King Of Sorrow
TTITLE3=Somebody Already Broke My Heart
TTITLE4=All About Our Love
TTITLE5=Slave Song
TTITLE6=The Sweetest Gift
TTITLE7=Every Word
TTITLE8=Immigrant
TTITLE9=Lovers Rock
TTITLE10=It's Only Love That Gets You Through
EXTD=YEAR: 2000 ID3G:  17
EXTT0=
EXTT1=
EXTT2=
EXTT3=
EXTT4=
EXTT5=
EXTT6=
EXTT7=
EXTT8=
EXTT9=
EXTT10=
PLAYORDER=
